<?xml version="1.0" encoding="utf-8"?>
<!-- Generator: Adobe Illustrator 16.0.3, SVG Export Plug-In . SVG Version: 6.00 Build 0)  -->
<!DOCTYPE svg PUBLIC "-//W3C//DTD SVG 1.1//EN" "http://www.w3.org/Graphics/SVG/1.1/DTD/svg11.dtd">
<svg version="1.1" id="Layer_1" xmlns="http://www.w3.org/2000/svg" xmlns:xlink="http://www.w3.org/1999/xlink" x="0px" y="0px"
	 width="36.001px" height="45px" viewBox="0 0 36.001 45" enable-background="new 0 0 36.001 45" xml:space="preserve">
<g>
	<linearGradient id="SVGID_1_" gradientUnits="userSpaceOnUse" x1="28.6055" y1="40.0537" x2="10.6549" y2="1.5586">
		<stop  offset="0" style="stop-color:#0080FF"/>
		<stop  offset="0.1839" style="stop-color:#1293FF"/>
		<stop  offset="0.4196" style="stop-color:#22A4FF"/>
		<stop  offset="0.6781" style="stop-color:#2BAEFF"/>
		<stop  offset="1" style="stop-color:#2EB1FF"/>
	</linearGradient>
	<path fill="url(#SVGID_1_)" d="M36,18c0,9.94-18,27-18,27S0,27.94,0,18C0,8.059,8.059,0,18,0C27.94,0,36,8.059,36,18z"/>
	<g opacity="0.1">
		<path d="M18,2c8.822,0,16,7.178,16,16c0,6.813-10.516,18.727-16,24.206C12.515,36.727,2,24.813,2,18C2,9.178,9.178,2,18,2 M18,0
			C8.059,0,0,8.059,0,18c0,9.94,18,27,18,27s18-17.06,18-27C36,8.059,27.94,0,18,0L18,0z"/>
	</g>
	<path fill="#FFFFFF" d="M18,1c9.374,0,17,7.626,17,17c0,8.322-13.736,22.382-17,25.604C14.736,40.382,1,26.322,1,18
		C1,8.626,8.626,1,18,1 M18,0C8.059,0,0,8.059,0,18c0,9.94,18,27,18,27s18-17.06,18-27C36,8.059,27.94,0,18,0L18,0z"/>
</g>
<path fill="#FFFFFF" d="M14.136,20.303c0.117,0.109,0.509,0.314,1.146,0.314c0.638,0,1.029-0.183,1.146-0.292
	c0.534-0.492,1.15-0.73,1.781-0.73h0.545c0.632,0,1.246,0.238,1.78,0.73c0.118,0.109,0.51,0.302,1.147,0.302s1.026-0.21,1.146-0.319
	c0.494-0.457,1.062-0.707,1.645-0.742l-3.759-2.688l0.598-0.429c0.122-0.085,0.277-0.117,0.422-0.087l3.345,0.717
	c0.863,0.184,1.714-0.366,1.9-1.229c0.184-0.864-0.365-1.715-1.229-1.9l-3.347-0.718c-1.022-0.219-2.099,0.005-2.951,0.613
	l-2.666,1.906c-0.347,0.246-0.646,0.547-0.891,0.897l-2.288,3.269C13.789,20.024,13.967,20.147,14.136,20.303z M28.613,22.262
	h-0.531c-0.868,0-1.527-0.416-1.871-0.731c-0.296-0.273-0.655-0.603-1.06-0.603h-0.542c-0.405,0-0.764,0.041-1.06,0.313
	c-0.343,0.316-1.001,0.52-1.868,0.52c-0.869,0-1.528-0.165-1.87-0.48c-0.297-0.273-0.655-0.353-1.059-0.353h-0.544
	c-0.403,0-0.762,0.041-1.058,0.313c-0.343,0.316-1.001,0.52-1.87,0.52c-0.868,0-1.526-0.165-1.869-0.48
	c-0.297-0.273-0.655-0.353-1.059-0.353h-0.544c-0.403,0-0.762,0.33-1.059,0.603c-0.342,0.315-1.001,0.731-1.869,0.731H8.348
	c-0.295,0-1.088-0.339-1.088-0.046v1.067c0,0.295,0.793,0.312,1.088,0.312h0.533c1.288,0,2.424-0.295,3.201-0.951
	c0.775,0.656,1.913,1.118,3.199,1.118c1.287,0,2.424-0.38,3.201-1.034c0.774,0.655,1.911,1.076,3.199,1.076
	c1.287,0,2.424-0.511,3.199-1.166c0.776,0.656,1.913,0.957,3.201,0.957h0.531c0.297,0-0.021-0.017-0.021-0.312v-1.067
	C28.592,21.922,28.91,22.262,28.613,22.262z M11.548,18.483c1.473,0,2.667-1.193,2.667-2.667c0-1.472-1.194-2.667-2.667-2.667
	c-1.472,0-2.667,1.194-2.667,2.667C8.881,17.29,10.076,18.483,11.548,18.483z"/>
</svg>
